<?xml version="1.0" encoding="iso-8859-1"?>
<!-- Generator: Adobe Illustrator 19.0.0, SVG Export Plug-In . SVG Version: 6.00 Build 0)  -->
<svg version="1.1" id="Capa_1" xmlns="http://www.w3.org/2000/svg" xmlns:xlink="http://www.w3.org/1999/xlink" x="0px" y="0px"
	 viewBox="0 0 512 512" style="enable-background:new 0 0 512 512;" xml:space="preserve">
<rect x="7.515" y="47.593" style="fill:#AAB6B6;" width="496.971" height="416.814"/>
<rect x="7.515" y="47.593" style="fill:#809292;" width="24.047" height="416.814"/>
<rect x="7.515" y="47.593" style="fill:#FFE340;" width="496.971" height="64.125"/>
<rect x="7.515" y="47.593" style="fill:#FFDA00;" width="24.047" height="64.125"/>
<polygon style="fill:#FF66B2;" points="151.796,296.078 103.703,256 55.609,296.078 55.609,111.718 151.796,111.718 "/>
<polygon style="fill:#FF3399;" points="79.656,111.718 55.609,111.718 55.609,296.078 79.656,276.039 "/>
<g>
	<polygon style="fill:#40D3F7;" points="256,351.826 264.999,379.52 294.116,379.52 270.559,396.636 279.557,424.329 256,407.213 
		232.443,424.329 241.441,396.636 217.884,379.52 247.001,379.52 	"/>
	<polygon style="fill:#40D3F7;" points="358.242,351.826 367.24,379.52 396.359,379.52 372.801,396.636 381.8,424.329 
		358.242,407.213 334.685,424.329 343.682,396.636 320.125,379.52 349.244,379.52 	"/>
	<polygon style="fill:#40D3F7;" points="153.758,351.826 144.76,379.52 115.641,379.52 139.199,396.636 130.2,424.329 
		153.758,407.213 177.315,424.329 168.318,396.636 191.875,379.52 162.756,379.52 	"/>
</g>
<path d="M504.485,40.078H7.515C3.364,40.078,0,43.442,0,47.593v416.814c0,4.151,3.364,7.515,7.515,7.515h496.971
	c4.151,0,7.515-3.364,7.515-7.515V47.593C512,43.442,508.636,40.078,504.485,40.078z M15.029,456.892V119.233h33.065v176.845
	c0,6.237,7.524,9.774,12.326,5.773l43.283-36.069l43.283,36.069c4.807,4.005,12.326,0.453,12.326-5.773V119.233h172.838
	c4.151,0,7.515-3.364,7.515-7.515c0-4.151-3.364-7.515-7.515-7.515H15.029V55.108h481.941v49.096H368.72
	c-4.151,0-7.515,3.364-7.515,7.515c0,4.151,3.364,7.515,7.515,7.515h128.25v337.659H15.029z M63.123,119.233h81.159v160.801
	l-35.768-29.807c-2.752-2.294-6.869-2.294-9.623,0l-35.768,29.807V119.233z"/>
<circle cx="407.796" cy="80.157" r="7.515"/>
<circle cx="439.358" cy="80.157" r="7.515"/>
<circle cx="470.92" cy="80.157" r="7.515"/>
<path d="M143.781,72.642H55.609c-3.874,0-7.014,3.14-7.014,7.014c0,3.874,3.14,7.014,7.014,7.014h88.172
	c3.874,0,7.014-3.14,7.014-7.014C150.795,75.782,147.654,72.642,143.781,72.642z"/>
<path d="M215.922,72.642h-40.078c-3.874,0-7.014,3.14-7.014,7.014c0,3.874,3.14,7.014,7.014,7.014h40.078
	c3.874,0,7.014-3.14,7.014-7.014C222.935,75.782,219.795,72.642,215.922,72.642z"/>
<path d="M472.423,208.407H272.031c-4.151,0-7.515,3.364-7.515,7.515s3.364,7.515,7.515,7.515h200.391
	c4.151,0,7.515-3.364,7.515-7.515S476.574,208.407,472.423,208.407z"/>
<path d="M472.423,248.485H272.031c-4.151,0-7.515,3.364-7.515,7.515c0,4.151,3.364,7.515,7.515,7.515h200.391
	c4.151,0,7.515-3.364,7.515-7.515C479.937,251.849,476.574,248.485,472.423,248.485z"/>
<path d="M472.423,288.564H272.031c-4.151,0-7.515,3.364-7.515,7.515s3.364,7.515,7.515,7.515h200.391
	c4.151,0,7.515-3.364,7.515-7.515S476.574,288.564,472.423,288.564z"/>
<path d="M472.423,144.282H352.188c-4.151,0-7.515,3.364-7.515,7.515s3.364,7.515,7.515,7.515h120.235
	c4.151,0,7.515-3.364,7.515-7.515S476.574,144.282,472.423,144.282z"/>
<path d="M231.953,159.311h88.172c4.151,0,7.515-3.364,7.515-7.515s-3.364-7.515-7.515-7.515h-88.172
	c-4.151,0-7.515,3.364-7.515,7.515S227.802,159.311,231.953,159.311z"/>
<path d="M294.116,372.005h-23.658l-7.311-22.5c-1.006-3.097-3.892-5.193-7.147-5.193c-3.255,0-6.141,2.096-7.147,5.193l-7.311,22.5
	h-23.658c-3.255,0-6.141,2.096-7.147,5.193c-1.006,3.096,0.096,6.488,2.73,8.401l19.14,13.906l-7.311,22.502
	c-0.962,2.961,0.049,6.296,2.495,8.223c2.613,2.059,6.377,2.134,9.069,0.178l19.141-13.906l19.141,13.906
	c2.824,2.052,6.794,1.855,9.404-0.46c2.213-1.963,3.073-5.127,2.159-7.941l-7.311-22.502l19.14-13.906
	c2.634-1.914,3.736-5.305,2.73-8.401C300.257,374.101,297.372,372.005,294.116,372.005z M266.143,390.556
	c-2.634,1.913-3.736,5.305-2.73,8.401l1.852,5.699l-4.847-3.522c-1.317-0.957-2.867-1.436-4.417-1.436
	c-1.55,0-3.1,0.479-4.417,1.436l-4.847,3.522l1.852-5.699c1.006-3.096-0.096-6.489-2.73-8.401l-4.846-3.522h5.991
	c3.255,0,6.141-2.096,7.147-5.193l1.852-5.697l1.852,5.697c1.006,3.097,3.892,5.193,7.147,5.193h5.991L266.143,390.556z"/>
<path d="M396.359,372.005H372.7l-7.311-22.5c-1.006-3.097-3.892-5.193-7.147-5.193c-3.255,0-6.141,2.096-7.147,5.193l-7.311,22.5
	h-23.658c-3.255,0-6.141,2.096-7.147,5.193c-1.006,3.096,0.096,6.489,2.73,8.401l19.141,13.907l-7.311,22.501
	c-0.914,2.814-0.054,5.979,2.159,7.941c2.61,2.315,6.58,2.513,9.404,0.46l19.14-13.906l19.141,13.906
	c2.692,1.956,6.456,1.881,9.069-0.178c2.446-1.927,3.457-5.262,2.495-8.223l-7.311-22.501l19.141-13.907
	c2.634-1.913,3.736-5.305,2.73-8.401C402.5,374.101,399.615,372.005,396.359,372.005z M368.385,390.556
	c-2.634,1.913-3.736,5.305-2.73,8.401l1.852,5.699l-4.847-3.522c-1.317-0.957-2.867-1.436-4.417-1.436
	c-1.55,0-3.1,0.479-4.417,1.436l-4.846,3.521l1.852-5.698c1.006-3.096-0.096-6.489-2.73-8.401l-4.846-3.522h5.991
	c3.255,0,6.141-2.096,7.147-5.193l1.852-5.697l1.852,5.697c1.006,3.097,3.892,5.193,7.147,5.193h5.991L368.385,390.556z"/>
<path d="M191.875,372.005h-23.658l-7.311-22.5c-0.994-3.061-3.929-5.193-7.147-5.193c-3.218,0-6.152,2.131-7.147,5.193l-7.311,22.5
	h-23.659c-3.255,0-6.141,2.096-7.147,5.193c-1.006,3.096,0.096,6.489,2.73,8.401l19.141,13.907l-7.311,22.501
	c-0.962,2.961,0.049,6.296,2.495,8.223c2.613,2.059,6.377,2.134,9.069,0.178l19.141-13.906l19.14,13.906
	c2.824,2.052,6.794,1.855,9.404-0.46c2.213-1.963,3.073-5.127,2.159-7.941l-7.311-22.501l19.141-13.907
	c2.648-1.923,3.752-5.446,2.683-8.537C197.94,374.07,195.043,372.005,191.875,372.005z M163.9,390.556
	c-2.634,1.913-3.736,5.305-2.73,8.401l1.852,5.698l-4.846-3.521c-2.634-1.914-6.2-1.914-8.833,0l-4.847,3.522l1.852-5.699
	c1.006-3.096-0.096-6.489-2.73-8.401l-4.846-3.522h5.991c3.255,0,6.141-2.096,7.147-5.193l1.852-5.697l1.852,5.697
	c1.006,3.097,3.892,5.193,7.147,5.193h5.991L163.9,390.556z"/>
<g>
</g>
<g>
</g>
<g>
</g>
<g>
</g>
<g>
</g>
<g>
</g>
<g>
</g>
<g>
</g>
<g>
</g>
<g>
</g>
<g>
</g>
<g>
</g>
<g>
</g>
<g>
</g>
<g>
</g>
</svg>
