<svg height="512pt" viewBox="0 0 512 512" width="512pt" xmlns="http://www.w3.org/2000/svg"><path d="m0 31h392v481h-392zm0 0" fill="#537983"/><path d="m196 31h196v481h-196zm0 0" fill="#3e5959"/><path d="m30 61h332v421h-332zm0 0" fill="#e0f4ff"/><path d="m196 61h166v421h-166zm0 0" fill="#bbdcff"/><path d="m181 361h150v30h-150zm0 0" fill="#bbdcff"/><path d="m181 421h90v30h-90zm0 0" fill="#bbdcff"/><path d="m301 421h30v30h-30zm0 0" fill="#9abadb"/><path d="m452 451h30v61h-30zm0 0" fill="#e0f4ff"/><path d="m151 451h-90v-90h90zm0 0" fill="#7fe881"/><path d="m181 241h150v30h-150zm0 0" fill="#bbdcff"/><path d="m181 301h90v30h-90zm0 0" fill="#bbdcff"/><path d="m301 301h30v30h-30zm0 0" fill="#9abadb"/><path d="m151 331h-90v-90h90zm0 0" fill="#7fe881"/><path d="m181 121h150v30h-150zm0 0" fill="#bbdcff"/><path d="m181 181h90v30h-90zm0 0" fill="#bbdcff"/><path d="m301 181h30v30h-30zm0 0" fill="#9abadb"/><path d="m151 211h-90v-90h90zm0 0" fill="#7fe881"/><path d="m91 391h30v30h-30zm0 0" fill="#e0f4ff"/><path d="m91 271h30v30h-30zm0 0" fill="#e0f4ff"/><path d="m91 151h30v30h-30zm0 0" fill="#e0f4ff"/><g fill="#9abadb"><path d="m196 181h75v30h-75zm0 0"/><path d="m196 301h75v30h-75zm0 0"/><path d="m196 421h75v30h-75zm0 0"/><path d="m196 121h135v30h-135zm0 0"/><path d="m196 241h135v30h-135zm0 0"/><path d="m196 361h135v30h-135zm0 0"/></g><path d="m121 0h150v61h-150zm0 0" fill="#7fe881"/><path d="m196 0h75v61h-75zm0 0" fill="#5bc980"/><path d="m512 106v165l-41.101562 30-3.898438-2.402344-45-27.597656v-165c0-24.902344 20.097656-45 45-45s45 20.097656 45 45zm0 0" fill="#25d9f8"/><path d="m467 451h15v61h-15zm0 0" fill="#bbdcff"/><path d="m512 106v165l-41.101562 30-3.898438-2.402344v-237.597656c24.902344 0 45 20.097656 45 45zm0 0" fill="#00c0f1"/><path d="m512 271v138.601562l-45 91-45-91v-138.601562zm0 0" fill="#e0f4ff"/><path d="m512 271v138.601562l-45 91v-229.601562zm0 0" fill="#bbdcff"/></svg>